<svg width="556" height="62" viewBox="0 0 556 62" fill="none" xmlns="http://www.w3.org/2000/svg">
<path d="M0.000469029 60.6001C0.000469029 52.6001 0.000469029 44.6401 0.000469029 36.7201C0.000469029 28.7201 0.000469029 20.7201 0.000469029 12.7201C0.000469029 10.0001 0.480469 8.1201 1.44047 7.0801C2.48047 6.0401 4.28047 5.4801 6.84047 5.4001C10.2805 5.3201 14.0005 5.28009 18.0005 5.28009C22.0005 5.28009 25.9605 5.28009 29.8805 5.28009C33.8805 5.28009 37.4805 5.36009 40.6805 5.5201C44.1205 5.60009 47.0405 6.24009 49.4405 7.4401C51.9205 8.5601 53.8005 10.3201 55.0805 12.7201C56.4405 15.0401 57.1205 18.0801 57.1205 21.8401C57.1205 26.0801 56.4005 29.5601 54.9605 32.2801C53.5205 35.0001 51.4805 37.0001 48.8405 38.2801C46.2805 39.4801 43.2405 40.0801 39.7205 40.0801C35.4005 40.0001 31.0005 39.9601 26.5205 39.9601C22.0405 39.9601 17.6405 39.9601 13.3205 39.9601C13.3205 38.1201 13.3205 36.7601 13.3205 35.8801C13.4005 34.9201 13.6005 34.2801 13.9205 33.9601C14.2405 33.5601 14.8005 33.3601 15.6005 33.3601C17.0405 33.3601 18.8405 33.3601 21.0005 33.3601C23.2405 33.3601 25.6005 33.3601 28.0805 33.3601C30.5605 33.3601 32.8405 33.3601 34.9205 33.3601C36.6805 33.3601 38.2805 33.0401 39.7205 32.4001C41.1605 31.6801 42.3205 30.4801 43.2005 28.8001C44.0805 27.1201 44.5205 24.8401 44.5205 21.9601C44.5205 19.0001 43.9205 16.7201 42.7205 15.1201C41.6005 13.4401 39.6805 12.5201 36.9605 12.3601C34.5605 12.1201 32.0005 12.0001 29.2805 12.0001C26.5605 12.0001 23.9605 12.0401 21.4805 12.1201C19.0005 12.1201 16.8405 12.1601 15.0005 12.2401C14.6005 12.2401 14.0405 12.4401 13.3205 12.8401C12.6805 13.1601 12.3605 13.8401 12.3605 14.8801C12.3605 22.4801 12.3605 30.0801 12.3605 37.6801C12.3605 45.2801 12.3605 52.9201 12.3605 60.6001H0.000469029ZM89.647 61.3201C84.687 61.3201 80.647 61.0801 77.527 60.6001C74.407 60.2001 72.007 59.4401 70.327 58.3201C68.647 57.2001 67.487 55.6801 66.847 53.7601C66.287 51.8401 66.007 49.4401 66.007 46.5601C66.007 42.4801 66.447 39.4001 67.327 37.3201C68.287 35.1601 69.887 33.6801 72.127 32.8801C74.447 32.0801 77.527 31.6801 81.367 31.6801C83.367 31.6801 85.567 31.7201 87.967 31.8001C90.447 31.8801 92.807 32.0001 95.047 32.1601C97.367 32.2401 99.367 32.3601 101.047 32.5201C102.807 32.6801 103.967 32.8801 104.527 33.1201C104.527 29.7601 104.247 27.1201 103.687 25.2001C103.127 23.2801 102.207 21.8401 100.927 20.8801C99.727 19.9201 98.207 19.2801 96.367 18.9601C94.527 18.6401 92.367 18.4801 89.887 18.4801C87.167 18.4801 84.447 18.5601 81.727 18.7201C79.087 18.8801 76.567 19.1601 74.167 19.5601C71.847 19.9601 69.927 20.4801 68.407 21.1201V18.8401C68.407 17.0001 68.887 15.6801 69.847 14.8801C70.887 14.0801 72.127 13.5601 73.567 13.3201C75.167 12.9201 77.527 12.6001 80.647 12.3601C83.767 12.1201 87.087 12.0401 90.607 12.1201C95.087 12.1201 98.887 12.3601 102.007 12.8401C105.207 13.2401 107.767 14.1201 109.687 15.4801C111.687 16.8401 113.127 18.8801 114.007 21.6001C114.967 24.3201 115.447 27.9601 115.447 32.5201V57.0001C114.727 58.5201 112.287 59.6401 108.127 60.3601C103.967 61.0001 97.807 61.3201 89.647 61.3201ZM89.647 56.2801C92.847 56.2801 95.447 56.2001 97.447 56.0401C99.527 55.8001 101.127 55.5201 102.247 55.2001C103.367 54.8001 104.127 54.3201 104.527 53.7601V37.2001C103.807 36.9601 102.527 36.7601 100.687 36.6001C98.847 36.3601 96.927 36.1601 94.927 36.0001C92.927 35.8401 91.247 35.7601 89.887 35.7601C86.927 35.7601 84.527 35.9601 82.687 36.3601C80.847 36.7601 79.527 37.6801 78.727 39.1201C77.927 40.5601 77.527 42.8001 77.527 45.8401C77.527 48.3201 77.807 50.3201 78.367 51.8401C78.927 53.3601 80.047 54.4801 81.727 55.2001C83.487 55.9201 86.127 56.2801 89.647 56.2801ZM131.05 60.6001C128.81 60.6001 127.69 59.4801 127.69 57.2401V15.9601C130.09 15.0001 133.33 14.1601 137.41 13.4401C141.49 12.6401 146.13 12.2401 151.33 12.2401C156.45 12.2401 160.53 12.5601 163.57 13.2001C166.69 13.8401 169.05 14.8801 170.65 16.3201C172.25 17.6801 173.29 19.4801 173.77 21.7201C174.33 23.9601 174.61 26.7201 174.61 30.0001V56.0401C174.61 57.1601 174.49 58.0801 174.25 58.8001C174.09 59.5201 173.65 60.0001 172.93 60.2401C172.29 60.4801 171.29 60.6001 169.93 60.6001H163.33V27.6001C163.33 24.4801 162.37 22.2401 160.45 20.8801C158.53 19.5201 155.49 18.8401 151.33 18.8401C150.05 18.8401 148.61 18.9601 147.01 19.2001C145.41 19.3601 143.89 19.6401 142.45 20.0401C141.01 20.4401 139.85 20.9601 138.97 21.6001V60.6001H131.05ZM185.424 36.4801C185.424 30.0001 186.304 25.0401 188.064 21.6001C189.824 18.0801 192.384 15.6801 195.744 14.4001C199.104 13.0401 203.144 12.3601 207.864 12.3601C209.304 12.3601 210.944 12.4401 212.784 12.6001C214.704 12.6801 216.584 12.8401 218.424 13.0801C220.264 13.3201 221.904 13.6001 223.344 13.9201C224.784 14.1601 225.784 14.4401 226.344 14.7601L223.344 16.2001V9.82285e-05H234.384L234.264 36.4801C234.264 41.9201 233.864 46.2801 233.064 49.5601C232.264 52.7601 230.944 55.1601 229.104 56.7601C227.264 58.3601 224.704 59.4401 221.424 60.0001C218.144 60.5601 214.064 60.8401 209.184 60.8401C204.624 60.8401 200.784 60.5601 197.664 60.0001C194.624 59.3601 192.184 58.2001 190.344 56.5201C188.584 54.8401 187.304 52.4001 186.504 49.2001C185.784 46.0001 185.424 41.7601 185.424 36.4801ZM208.944 54.7201C212.064 54.7201 214.584 54.5201 216.504 54.1201C218.424 53.6401 219.864 52.8001 220.824 51.6001C221.864 50.4001 222.544 48.7201 222.864 46.5601C223.184 44.3201 223.344 41.4401 223.344 37.9201L223.224 19.5601C222.424 19.4801 221.344 19.4001 219.984 19.3201C218.624 19.2401 217.184 19.2001 215.664 19.2001C214.144 19.1201 212.744 19.0801 211.464 19.0801C207.864 19.0801 204.984 19.5601 202.824 20.5201C200.664 21.4001 199.104 23.1201 198.144 25.6801C197.184 28.2401 196.704 31.9201 196.704 36.7201C196.704 41.8401 197.064 45.6801 197.784 48.2401C198.584 50.8001 199.864 52.5201 201.624 53.4001C203.464 54.2801 205.904 54.7201 208.944 54.7201ZM268.124 61.3201C263.164 61.3201 259.124 61.0801 256.004 60.6001C252.884 60.2001 250.484 59.4401 248.804 58.3201C247.124 57.2001 245.964 55.6801 245.324 53.7601C244.764 51.8401 244.484 49.4401 244.484 46.5601C244.484 42.4801 244.924 39.4001 245.804 37.3201C246.764 35.1601 248.364 33.6801 250.604 32.8801C252.924 32.0801 256.004 31.6801 259.844 31.6801C261.844 31.6801 264.044 31.7201 266.444 31.8001C268.924 31.8801 271.284 32.0001 273.524 32.1601C275.844 32.2401 277.844 32.3601 279.524 32.5201C281.284 32.6801 282.444 32.8801 283.004 33.1201C283.004 29.7601 282.724 27.1201 282.164 25.2001C281.604 23.2801 280.684 21.8401 279.404 20.8801C278.204 19.9201 276.684 19.2801 274.844 18.9601C273.004 18.6401 270.844 18.4801 268.364 18.4801C265.644 18.4801 262.924 18.5601 260.204 18.7201C257.564 18.8801 255.044 19.1601 252.644 19.5601C250.324 19.9601 248.404 20.4801 246.884 21.1201V18.8401C246.884 17.0001 247.364 15.6801 248.324 14.8801C249.364 14.0801 250.604 13.5601 252.044 13.3201C253.644 12.9201 256.004 12.6001 259.124 12.3601C262.244 12.1201 265.564 12.0401 269.084 12.1201C273.564 12.1201 277.364 12.3601 280.484 12.8401C283.684 13.2401 286.244 14.1201 288.164 15.4801C290.164 16.8401 291.604 18.8801 292.484 21.6001C293.444 24.3201 293.924 27.9601 293.924 32.5201V57.0001C293.204 58.5201 290.764 59.6401 286.604 60.3601C282.444 61.0001 276.284 61.3201 268.124 61.3201ZM268.124 56.2801C271.324 56.2801 273.924 56.2001 275.924 56.0401C278.004 55.8001 279.604 55.5201 280.724 55.2001C281.844 54.8001 282.604 54.3201 283.004 53.7601V37.2001C282.284 36.9601 281.004 36.7601 279.164 36.6001C277.324 36.3601 275.404 36.1601 273.404 36.0001C271.404 35.8401 269.724 35.7601 268.364 35.7601C265.404 35.7601 263.004 35.9601 261.164 36.3601C259.324 36.7601 258.004 37.6801 257.204 39.1201C256.404 40.5601 256.004 42.8001 256.004 45.8401C256.004 48.3201 256.284 50.3201 256.844 51.8401C257.404 53.3601 258.524 54.4801 260.204 55.2001C261.964 55.9201 264.604 56.2801 268.124 56.2801ZM320.326 60.9601C317.126 60.9601 314.606 60.6001 312.766 59.8801C311.006 59.1601 309.726 57.8801 308.926 56.0401C308.126 54.2001 307.726 51.7201 307.726 48.6001V18.8401H302.926V12.7201H307.726V4.80009C307.726 3.3601 307.846 2.3201 308.086 1.68009C308.326 0.960097 308.726 0.520096 309.286 0.360094C309.926 0.120097 310.846 9.82285e-05 312.046 9.82285e-05H319.006C319.006 0.160096 319.006 0.520095 319.006 1.0801C319.006 1.5601 319.006 2.2801 319.006 3.2401V12.7201H330.286V18.8401H319.006V47.5201C319.006 50.6401 319.326 52.8801 319.966 54.2401C320.606 55.5201 322.126 56.1601 324.526 56.1601C325.326 56.1601 326.206 56.0801 327.166 55.9201C328.206 55.7601 328.926 55.6001 329.326 55.4401V60.1201C328.846 60.2001 327.806 60.3601 326.206 60.6001C324.606 60.8401 322.646 60.9601 320.326 60.9601ZM350.848 60.6001H343.168C341.968 60.6001 341.048 60.2801 340.408 59.6401C339.768 59.0001 339.448 57.8001 339.448 56.0401V15.1201C341.368 14.5601 344.048 13.9601 347.488 13.3201C350.928 12.6801 355.048 12.3601 359.848 12.3601C364.568 12.3601 368.288 12.6801 371.008 13.3201C373.728 13.8801 375.728 14.7601 377.008 15.9601C378.368 17.0801 379.208 18.4801 379.528 20.1601C379.928 21.7601 380.128 23.6401 380.128 25.8001H369.328L369.208 24.1201C369.208 22.2001 368.688 20.8401 367.648 20.0401C366.688 19.1601 365.528 18.6001 364.168 18.3601C362.808 18.1201 361.448 18.0001 360.088 18.0001C358.008 18.0001 356.128 18.2001 354.448 18.6001C352.848 19.0001 351.648 19.5201 350.848 20.1601V60.6001ZM410.741 61.3201C405.781 61.3201 401.741 61.0801 398.621 60.6001C395.501 60.2001 393.101 59.4401 391.421 58.3201C389.741 57.2001 388.581 55.6801 387.941 53.7601C387.381 51.8401 387.101 49.4401 387.101 46.5601C387.101 42.4801 387.541 39.4001 388.421 37.3201C389.381 35.1601 390.981 33.6801 393.221 32.8801C395.541 32.0801 398.621 31.6801 402.461 31.6801C404.461 31.6801 406.661 31.7201 409.061 31.8001C411.541 31.8801 413.901 32.0001 416.141 32.1601C418.461 32.2401 420.461 32.3601 422.141 32.5201C423.901 32.6801 425.061 32.8801 425.621 33.1201C425.621 29.7601 425.341 27.1201 424.781 25.2001C424.221 23.2801 423.301 21.8401 422.021 20.8801C420.821 19.9201 419.301 19.2801 417.461 18.9601C415.621 18.6401 413.461 18.4801 410.981 18.4801C408.261 18.4801 405.541 18.5601 402.821 18.7201C400.181 18.8801 397.661 19.1601 395.261 19.5601C392.941 19.9601 391.021 20.4801 389.501 21.1201V18.8401C389.501 17.0001 389.981 15.6801 390.941 14.8801C391.981 14.0801 393.221 13.5601 394.661 13.3201C396.261 12.9201 398.621 12.6001 401.741 12.3601C404.861 12.1201 408.181 12.0401 411.701 12.1201C416.181 12.1201 419.981 12.3601 423.101 12.8401C426.301 13.2401 428.861 14.1201 430.781 15.4801C432.781 16.8401 434.221 18.8801 435.101 21.6001C436.061 24.3201 436.541 27.9601 436.541 32.5201V57.0001C435.821 58.5201 433.381 59.6401 429.221 60.3601C425.061 61.0001 418.901 61.3201 410.741 61.3201ZM410.741 56.2801C413.941 56.2801 416.541 56.2001 418.541 56.0401C420.621 55.8001 422.221 55.5201 423.341 55.2001C424.461 54.8001 425.221 54.3201 425.621 53.7601V37.2001C424.901 36.9601 423.621 36.7601 421.781 36.6001C419.941 36.3601 418.021 36.1601 416.021 36.0001C414.021 35.8401 412.341 35.7601 410.981 35.7601C408.021 35.7601 405.621 35.9601 403.781 36.3601C401.941 36.7601 400.621 37.6801 399.821 39.1201C399.021 40.5601 398.621 42.8001 398.621 45.8401C398.621 48.3201 398.901 50.3201 399.461 51.8401C400.021 53.3601 401.141 54.4801 402.821 55.2001C404.581 55.9201 407.221 56.2801 410.741 56.2801ZM447.104 36.4801C447.104 30.0001 447.984 25.0401 449.744 21.6001C451.504 18.0801 454.064 15.6801 457.424 14.4001C460.784 13.0401 464.824 12.3601 469.544 12.3601C470.984 12.3601 472.624 12.4401 474.464 12.6001C476.384 12.6801 478.264 12.8401 480.104 13.0801C481.944 13.3201 483.584 13.6001 485.024 13.9201C486.464 14.1601 487.464 14.4401 488.024 14.7601L485.024 16.2001V9.82285e-05H496.064L495.944 36.4801C495.944 41.9201 495.544 46.2801 494.744 49.5601C493.944 52.7601 492.624 55.1601 490.784 56.7601C488.944 58.3601 486.384 59.4401 483.104 60.0001C479.824 60.5601 475.744 60.8401 470.864 60.8401C466.304 60.8401 462.464 60.5601 459.344 60.0001C456.304 59.3601 453.864 58.2001 452.024 56.5201C450.264 54.8401 448.984 52.4001 448.184 49.2001C447.464 46.0001 447.104 41.7601 447.104 36.4801ZM470.624 54.7201C473.744 54.7201 476.264 54.5201 478.184 54.1201C480.104 53.6401 481.544 52.8001 482.504 51.6001C483.544 50.4001 484.224 48.7201 484.544 46.5601C484.864 44.3201 485.024 41.4401 485.024 37.9201L484.904 19.5601C484.104 19.4801 483.024 19.4001 481.664 19.3201C480.304 19.2401 478.864 19.2001 477.344 19.2001C475.824 19.1201 474.424 19.0801 473.144 19.0801C469.544 19.0801 466.664 19.5601 464.504 20.5201C462.344 21.4001 460.784 23.1201 459.824 25.6801C458.864 28.2401 458.384 31.9201 458.384 36.7201C458.384 41.8401 458.744 45.6801 459.464 48.2401C460.264 50.8001 461.544 52.5201 463.304 53.4001C465.144 54.2801 467.584 54.7201 470.624 54.7201ZM531.843 61.3201C526.963 61.3201 522.843 61.0001 519.483 60.3601C516.203 59.7201 513.563 58.5201 511.563 56.7601C509.643 55.0001 508.283 52.5601 507.483 49.4401C506.683 46.3201 506.283 42.2801 506.283 37.3201C506.283 31.4001 507.043 26.6001 508.563 22.9201C510.083 19.2401 512.763 16.5601 516.603 14.8801C520.523 13.1201 525.963 12.2401 532.923 12.2401C538.363 12.2401 542.683 12.9201 545.883 14.2801C549.163 15.5601 551.523 17.6001 552.963 20.4001C554.403 23.2001 555.123 26.7601 555.123 31.0801V38.7601H521.403C521.403 37.4801 521.683 36.4401 522.243 35.6401C522.803 34.8401 523.843 34.4401 525.363 34.4401H545.043L544.923 31.3201C544.843 26.8401 543.883 23.5601 542.043 21.4801C540.283 19.4001 537.083 18.3601 532.443 18.3601C528.603 18.3601 525.603 18.9601 523.443 20.1601C521.283 21.3601 519.763 23.3201 518.883 26.0401C518.003 28.6801 517.563 32.3601 517.563 37.0801C517.563 41.9601 518.043 45.6801 519.003 48.2401C520.043 50.7201 521.723 52.4001 524.043 53.2801C526.443 54.1601 529.763 54.6001 534.003 54.6001C535.523 54.6001 537.283 54.5601 539.283 54.4801C541.363 54.4001 543.443 54.2801 545.523 54.1201C547.683 53.9601 549.603 53.7601 551.283 53.5201C552.963 53.2801 554.083 53.0401 554.643 52.8001V54.4801C554.643 55.3601 554.443 56.2401 554.043 57.1201C553.643 58.0001 552.803 58.7201 551.523 59.2801C549.843 60.0801 547.363 60.6001 544.083 60.8401C540.883 61.1601 536.803 61.3201 531.843 61.3201Z" fill="white"/>
</svg>
