<svg width="493" height="74" viewBox="0 0 493 74" fill="none" xmlns="http://www.w3.org/2000/svg">
<path d="M23.0413 61.3201C19.2013 61.3201 15.7613 61.0001 12.7213 60.3601C9.68125 59.7201 7.16125 58.5601 5.16125 56.8801C3.24125 55.1201 1.88125 52.6401 1.08125 49.4401C0.36125 46.1601 0.40125 41.9201 1.20125 36.7201C1.92125 31.3601 3.08125 27.0401 4.68125 23.7601C6.36125 20.4801 8.40125 18.0001 10.8013 16.3201C13.2013 14.6401 15.9613 13.5201 19.0813 12.9601C22.2813 12.4001 25.8013 12.1201 29.6413 12.1201C33.4813 12.1201 36.9213 12.4401 39.9613 13.0801C43.0013 13.7201 45.4813 14.9201 47.4013 16.6801C49.3213 18.3601 50.6413 20.8401 51.3613 24.1201C52.0813 27.3201 52.0813 31.5201 51.3613 36.7201C50.5613 42.1601 49.3613 46.5201 47.7613 49.8001C46.2413 53.0001 44.2813 55.4401 41.8813 57.1201C39.4813 58.8001 36.7213 59.9201 33.6013 60.4801C30.4813 61.0401 26.9613 61.3201 23.0413 61.3201ZM23.7613 55.3201C26.6413 55.3201 29.1613 54.8801 31.3213 54.0001C33.4813 53.1201 35.2813 51.3601 36.7213 48.7201C38.1613 46.0801 39.2413 42.0801 39.9613 36.7201C40.6813 31.3601 40.6813 27.3601 39.9613 24.7201C39.3213 22.0801 38.0413 20.3201 36.1213 19.4401C34.2813 18.5601 31.8813 18.1201 28.9213 18.1201C26.0413 18.1201 23.4813 18.5601 21.2413 19.4401C19.0813 20.3201 17.2813 22.0801 15.8413 24.7201C14.4013 27.3601 13.3213 31.3601 12.6013 36.7201C11.8813 42.0801 11.8813 46.0801 12.6013 48.7201C13.3213 51.3601 14.6413 53.1201 16.5613 54.0001C18.4813 54.8801 20.8813 55.3201 23.7613 55.3201ZM57.9641 73.4401L65.1641 22.4401C65.4841 20.3601 65.7241 18.5201 65.8841 16.9201C66.0441 15.3201 66.1241 14.2801 66.1241 13.8001C66.8441 13.6401 68.0841 13.4801 69.8441 13.3201C71.6041 13.1601 73.6841 13.0401 76.0841 12.9601C78.4841 12.8001 80.8841 12.6801 83.2841 12.6001C85.6841 12.4401 87.8841 12.3601 89.8841 12.3601C96.4441 12.3601 101.524 13.2401 105.124 15.0001C108.724 16.6801 111.044 19.4001 112.084 23.1601C113.204 26.8401 113.244 31.7201 112.204 37.8001C111.244 43.4001 109.844 47.9201 108.004 51.3601C106.164 54.8001 103.604 57.2801 100.324 58.8001C97.0441 60.3201 92.7241 61.0801 87.3641 61.0801C84.1641 61.0801 81.3241 60.7601 78.8441 60.1201C76.4441 59.4801 74.5241 58.4001 73.0841 56.8801C71.7241 55.2801 70.9641 53.1601 70.8041 50.5201L72.7241 49.3201L69.2441 73.4401H57.9641ZM85.4441 54.6001C89.7641 54.6001 93.2041 53.2801 95.7641 50.6401C98.3241 48.0001 100.084 43.2401 101.044 36.3601C102.084 29.5601 101.684 24.9201 99.8441 22.4401C98.0841 19.8801 94.5241 18.6001 89.1641 18.6001C88.0441 18.6001 86.6441 18.6401 84.9641 18.7201C83.3641 18.8001 81.8041 18.9201 80.2841 19.0801C78.8441 19.1601 77.7241 19.2801 76.9241 19.4401L73.9241 41.2801C73.3641 44.8801 73.4441 47.6401 74.1641 49.5601C74.9641 51.4801 76.3241 52.8001 78.2441 53.5201C80.1641 54.2401 82.5641 54.6001 85.4441 54.6001ZM144.219 61.3201C139.339 61.3201 135.299 61.0001 132.099 60.3601C128.899 59.6401 126.459 58.4001 124.779 56.6401C123.099 54.8801 122.019 52.4401 121.539 49.3201C121.139 46.2001 121.299 42.2001 122.019 37.3201C122.899 31.0801 124.379 26.1601 126.459 22.5601C128.539 18.8801 131.579 16.2401 135.579 14.6401C139.659 13.0401 145.179 12.2401 152.139 12.2401C160.139 12.2401 165.619 13.8001 168.579 16.9201C171.619 19.9601 172.699 24.6801 171.819 31.0801L170.739 38.7601H137.019C137.179 37.4801 137.579 36.4401 138.219 35.6401C138.939 34.8401 140.059 34.4401 141.579 34.4401H161.259L161.619 31.3201C162.099 27.0001 161.579 23.7601 160.059 21.6001C158.539 19.4401 155.499 18.3601 150.939 18.3601C147.179 18.3601 144.139 18.9201 141.819 20.0401C139.499 21.0801 137.699 22.9601 136.419 25.6801C135.139 28.3201 134.139 32.1201 133.419 37.0801C132.779 41.8801 132.779 45.5601 133.419 48.1201C134.059 50.6001 135.499 52.3201 137.739 53.2801C139.979 54.1601 143.179 54.6001 147.339 54.6001C148.859 54.6001 150.659 54.5601 152.739 54.4801C154.819 54.4001 156.939 54.2801 159.099 54.1201C161.259 53.9601 163.179 53.7601 164.859 53.5201C166.539 53.2801 167.659 53.0401 168.219 52.8001L167.979 54.4801C167.899 55.3601 167.579 56.2401 167.019 57.1201C166.459 58.0001 165.539 58.7201 164.259 59.2801C162.419 60.0801 159.859 60.6001 156.579 60.8401C153.299 61.1601 149.179 61.3201 144.219 61.3201ZM181.595 60.6001C179.275 60.6001 178.315 59.4801 178.715 57.2401L184.475 15.9601C185.915 15.4001 187.675 14.8401 189.755 14.2801C191.915 13.7201 194.555 13.2801 197.675 12.9601C200.875 12.5601 204.675 12.3601 209.075 12.3601C214.035 12.3601 217.995 12.6801 220.955 13.3201C223.915 13.8801 226.075 14.8801 227.435 16.3201C228.795 17.6801 229.555 19.4801 229.715 21.7201C229.955 23.9601 229.835 26.7201 229.355 30.0001L225.635 56.0401C225.475 57.1601 225.235 58.0801 224.915 58.8001C224.675 59.5201 224.195 60.0001 223.475 60.2401C222.755 60.4801 221.715 60.6001 220.355 60.6001H213.875L218.435 27.6001C218.915 24.4801 218.275 22.2401 216.515 20.8801C214.835 19.5201 211.995 18.8401 207.995 18.8401C205.035 18.8401 202.395 19.0801 200.075 19.5601C197.755 20.0401 196.035 20.7201 194.915 21.6001L189.395 60.6001H181.595ZM251.569 60.9601C248.369 60.9601 245.929 60.6001 244.249 59.8801C242.569 59.1601 241.449 57.8801 240.889 56.0401C240.409 54.2001 240.369 51.7201 240.769 48.6001L244.969 18.8401H240.169L241.009 12.7201H245.809L246.889 4.80009C247.129 3.3601 247.409 2.3201 247.729 1.68009C248.049 0.960097 248.529 0.520096 249.169 0.360094C249.809 0.120097 250.729 9.82285e-05 251.929 9.82285e-05H258.889C258.889 0.160096 258.849 0.520095 258.769 1.0801C258.689 1.5601 258.569 2.2801 258.409 3.2401L257.089 12.7201H268.369L267.529 18.8401H256.249L252.169 47.5201C251.769 50.6401 251.809 52.8801 252.289 54.2401C252.769 55.5201 254.169 56.1601 256.489 56.1601C257.289 56.1601 258.209 56.0801 259.249 55.9201C260.289 55.7601 261.009 55.6001 261.409 55.4401L260.809 60.1201C260.329 60.2001 259.249 60.3601 257.569 60.6001C255.889 60.8401 253.889 60.9601 251.569 60.9601ZM282.21 60.6001H274.53C273.33 60.6001 272.45 60.2801 271.89 59.6401C271.41 59.0001 271.29 57.8001 271.53 56.0401L277.29 15.1201C279.21 14.5601 281.93 13.9601 285.45 13.3201C289.05 12.6801 293.21 12.3601 297.93 12.3601C302.65 12.3601 306.33 12.6801 308.97 13.3201C311.61 13.8801 313.49 14.7601 314.61 15.9601C315.73 17.0801 316.37 18.4801 316.53 20.1601C316.69 21.7601 316.61 23.6401 316.29 25.8001H305.49L305.73 24.1201C305.89 22.2001 305.53 20.8401 304.65 20.0401C303.85 19.1601 302.77 18.6001 301.41 18.3601C300.13 18.1201 298.77 18.0001 297.33 18.0001C295.33 18.0001 293.49 18.2001 291.81 18.6001C290.13 19.0001 288.81 19.5201 287.85 20.1601L282.21 60.6001ZM341.983 61.3201C337.023 61.3201 333.023 61.0801 329.983 60.6001C326.943 60.2001 324.663 59.4401 323.143 58.3201C321.623 57.2001 320.663 55.6801 320.263 53.7601C319.943 51.8401 319.983 49.4401 320.383 46.5601C320.943 42.4801 321.823 39.4001 323.023 37.3201C324.303 35.1601 326.103 33.6801 328.423 32.8801C330.823 32.0801 333.943 31.6801 337.783 31.6801C339.863 31.6801 342.103 31.7201 344.503 31.8001C346.903 31.8801 349.223 32.0001 351.463 32.1601C353.783 32.2401 355.783 32.3601 357.463 32.5201C359.143 32.6801 360.263 32.8801 360.823 33.1201C361.383 29.7601 361.503 27.1201 361.183 25.2001C360.863 23.2801 360.143 21.8401 359.023 20.8801C357.983 19.9201 356.543 19.2801 354.703 18.9601C352.863 18.6401 350.743 18.4801 348.343 18.4801C345.623 18.4801 342.863 18.5601 340.063 18.7201C337.343 18.8801 334.783 19.1601 332.383 19.5601C330.063 19.9601 328.063 20.4801 326.383 21.1201L326.743 18.8401C327.063 17.0001 327.743 15.6801 328.783 14.8801C329.903 14.0801 331.183 13.5601 332.623 13.3201C334.303 12.9201 336.703 12.6001 339.823 12.3601C343.023 12.1201 346.383 12.0401 349.903 12.1201C354.383 12.1201 358.143 12.3601 361.183 12.8401C364.303 13.2401 366.743 14.1201 368.503 15.4801C370.263 16.8401 371.423 18.8801 371.983 21.6001C372.543 24.3201 372.503 27.9601 371.863 32.5201L368.383 57.0001C367.503 58.5201 364.903 59.6401 360.583 60.3601C356.343 61.0001 350.143 61.3201 341.983 61.3201ZM342.583 56.2801C347.383 56.2801 350.983 56.0801 353.383 55.6801C355.863 55.2801 357.423 54.6401 358.063 53.7601L360.223 37.2001C359.503 36.9601 358.263 36.7601 356.503 36.6001C354.743 36.3601 352.863 36.1601 350.863 36.0001C348.863 35.8401 347.183 35.7601 345.823 35.7601C342.863 35.7601 340.423 35.9601 338.503 36.3601C336.583 36.7601 335.143 37.6801 334.183 39.1201C333.223 40.5601 332.503 42.8001 332.023 45.8401C331.703 48.3201 331.703 50.3201 332.023 51.8401C332.423 53.3601 333.423 54.4801 335.023 55.2001C336.623 55.9201 339.143 56.2801 342.583 56.2801ZM402.466 60.8401C396.466 60.8401 391.786 60.2001 388.426 58.9201C385.146 57.5601 382.986 55.1201 381.946 51.6001C380.906 48.0801 380.866 43.0401 381.826 36.4801C382.786 30.0001 384.346 25.0401 386.506 21.6001C388.666 18.0801 391.506 15.6801 395.026 14.4001C398.626 13.0401 402.866 12.3601 407.746 12.3601C409.186 12.3601 410.826 12.4401 412.666 12.6001C414.506 12.6801 416.346 12.8401 418.186 13.0801C420.026 13.3201 421.626 13.6001 422.986 13.9201C424.346 14.1601 425.266 14.4401 425.746 14.7601L422.626 16.2001L424.906 9.82285e-05H435.946L430.786 36.4801C429.986 42.0001 428.946 46.4001 427.666 49.6801C426.466 52.8801 424.826 55.3201 422.746 57.0001C420.746 58.6001 418.066 59.6401 414.706 60.1201C411.426 60.6001 407.346 60.8401 402.466 60.8401ZM403.546 54.7201C406.506 54.7201 408.906 54.5201 410.746 54.1201C412.666 53.6401 414.146 52.8001 415.186 51.6001C416.306 50.4001 417.186 48.7201 417.826 46.5601C418.466 44.3201 419.026 41.4401 419.506 37.9201L422.026 19.5601C421.306 19.4801 420.226 19.4001 418.786 19.3201C417.426 19.2401 415.986 19.2001 414.466 19.2001C413.026 19.1201 411.666 19.0801 410.386 19.0801C406.786 19.0801 403.826 19.5601 401.506 20.5201C399.186 21.4001 397.346 23.1201 395.986 25.6801C394.706 28.2401 393.746 31.9201 393.106 36.7201C392.386 41.6801 392.226 45.4401 392.626 48.0001C393.106 50.5601 394.226 52.3201 395.986 53.2801C397.826 54.2401 400.346 54.7201 403.546 54.7201ZM463.672 61.3201C458.792 61.3201 454.752 61.0001 451.552 60.3601C448.352 59.6401 445.912 58.4001 444.232 56.6401C442.552 54.8801 441.472 52.4401 440.992 49.3201C440.592 46.2001 440.752 42.2001 441.472 37.3201C442.352 31.0801 443.832 26.1601 445.912 22.5601C447.992 18.8801 451.032 16.2401 455.032 14.6401C459.112 13.0401 464.632 12.2401 471.592 12.2401C479.592 12.2401 485.072 13.8001 488.032 16.9201C491.072 19.9601 492.152 24.6801 491.272 31.0801L490.192 38.7601H456.472C456.632 37.4801 457.032 36.4401 457.672 35.6401C458.392 34.8401 459.512 34.4401 461.032 34.4401H480.712L481.072 31.3201C481.552 27.0001 481.032 23.7601 479.512 21.6001C477.992 19.4401 474.952 18.3601 470.392 18.3601C466.632 18.3601 463.592 18.9201 461.272 20.0401C458.952 21.0801 457.152 22.9601 455.872 25.6801C454.592 28.3201 453.592 32.1201 452.872 37.0801C452.232 41.8801 452.232 45.5601 452.872 48.1201C453.512 50.6001 454.952 52.3201 457.192 53.2801C459.432 54.1601 462.632 54.6001 466.792 54.6001C468.312 54.6001 470.112 54.5601 472.192 54.4801C474.272 54.4001 476.392 54.2801 478.552 54.1201C480.712 53.9601 482.632 53.7601 484.312 53.5201C485.992 53.2801 487.112 53.0401 487.672 52.8001L487.432 54.4801C487.352 55.3601 487.032 56.2401 486.472 57.1201C485.912 58.0001 484.992 58.7201 483.712 59.2801C481.872 60.0801 479.312 60.6001 476.032 60.8401C472.752 61.1601 468.632 61.3201 463.672 61.3201Z" fill="white"/>
</svg>
